<mxfile host="app.diagrams.net" agent="Mozilla/5.0 (Windows NT 10.0; Win64; x64) AppleWebKit/537.36 (KHTML, like Gecko) Chrome/131.0.0.0 Safari/537.36" version="25.0.3">
  <diagram name="Page-1" id="IP7R4dxQ9AqYjirmKmre">
    <mxGraphModel dx="1728" dy="915" grid="1" gridSize="10" guides="1" tooltips="1" connect="1" arrows="1" fold="1" page="1" pageScale="1" pageWidth="850" pageHeight="1100" math="0" shadow="0">
      <root>
        <mxCell id="0" />
        <mxCell id="1" parent="0" />
        <mxCell id="fm8CX82B8omJAochI-VR-6" style="edgeStyle=orthogonalEdgeStyle;rounded=0;orthogonalLoop=1;jettySize=auto;html=1;exitX=1;exitY=0.5;exitDx=0;exitDy=0;entryX=0.5;entryY=0;entryDx=0;entryDy=0;" edge="1" parent="1" source="fm8CX82B8omJAochI-VR-1" target="fm8CX82B8omJAochI-VR-2">
          <mxGeometry relative="1" as="geometry" />
        </mxCell>
        <mxCell id="fm8CX82B8omJAochI-VR-7" value="Join room" style="edgeLabel;html=1;align=center;verticalAlign=middle;resizable=0;points=[];" vertex="1" connectable="0" parent="fm8CX82B8omJAochI-VR-6">
          <mxGeometry x="-0.2537" relative="1" as="geometry">
            <mxPoint as="offset" />
          </mxGeometry>
        </mxCell>
        <mxCell id="fm8CX82B8omJAochI-VR-8" style="edgeStyle=orthogonalEdgeStyle;rounded=0;orthogonalLoop=1;jettySize=auto;html=1;exitX=0;exitY=0.5;exitDx=0;exitDy=0;entryX=0.5;entryY=0;entryDx=0;entryDy=0;" edge="1" parent="1" source="fm8CX82B8omJAochI-VR-1" target="fm8CX82B8omJAochI-VR-3">
          <mxGeometry relative="1" as="geometry" />
        </mxCell>
        <mxCell id="fm8CX82B8omJAochI-VR-10" value="Create new room" style="edgeLabel;html=1;align=center;verticalAlign=middle;resizable=0;points=[];" vertex="1" connectable="0" parent="fm8CX82B8omJAochI-VR-8">
          <mxGeometry x="-0.1376" y="1" relative="1" as="geometry">
            <mxPoint as="offset" />
          </mxGeometry>
        </mxCell>
        <mxCell id="fm8CX82B8omJAochI-VR-1" value="Home&lt;div&gt;(Enter name)&lt;/div&gt;" style="whiteSpace=wrap;html=1;aspect=fixed;" vertex="1" parent="1">
          <mxGeometry x="400" y="40" width="80" height="80" as="geometry" />
        </mxCell>
        <mxCell id="fm8CX82B8omJAochI-VR-2" value="Room in progress" style="whiteSpace=wrap;html=1;aspect=fixed;" vertex="1" parent="1">
          <mxGeometry x="500" y="140" width="80" height="80" as="geometry" />
        </mxCell>
        <mxCell id="fm8CX82B8omJAochI-VR-11" style="edgeStyle=orthogonalEdgeStyle;rounded=0;orthogonalLoop=1;jettySize=auto;html=1;exitX=0;exitY=0.5;exitDx=0;exitDy=0;entryX=0;entryY=0;entryDx=0;entryDy=0;" edge="1" parent="1" source="fm8CX82B8omJAochI-VR-3" target="fm8CX82B8omJAochI-VR-1">
          <mxGeometry relative="1" as="geometry" />
        </mxCell>
        <mxCell id="fm8CX82B8omJAochI-VR-13" value="If room doesn&#39;t start&lt;div&gt;in x minutes, delete it&lt;/div&gt;" style="edgeLabel;html=1;align=center;verticalAlign=middle;resizable=0;points=[];" vertex="1" connectable="0" parent="fm8CX82B8omJAochI-VR-11">
          <mxGeometry x="0.0909" y="8" relative="1" as="geometry">
            <mxPoint x="-4" y="1" as="offset" />
          </mxGeometry>
        </mxCell>
        <mxCell id="fm8CX82B8omJAochI-VR-15" style="edgeStyle=orthogonalEdgeStyle;rounded=0;orthogonalLoop=1;jettySize=auto;html=1;exitX=0.5;exitY=1;exitDx=0;exitDy=0;entryX=0.5;entryY=0;entryDx=0;entryDy=0;" edge="1" parent="1" source="fm8CX82B8omJAochI-VR-3" target="fm8CX82B8omJAochI-VR-14">
          <mxGeometry relative="1" as="geometry" />
        </mxCell>
        <mxCell id="fm8CX82B8omJAochI-VR-16" value="Everyone ready" style="edgeLabel;html=1;align=center;verticalAlign=middle;resizable=0;points=[];" vertex="1" connectable="0" parent="fm8CX82B8omJAochI-VR-15">
          <mxGeometry x="-0.1358" y="-3" relative="1" as="geometry">
            <mxPoint as="offset" />
          </mxGeometry>
        </mxCell>
        <mxCell id="fm8CX82B8omJAochI-VR-3" value="Lobby/waiting room&lt;div&gt;(choose teams, order)&lt;/div&gt;" style="whiteSpace=wrap;html=1;aspect=fixed;" vertex="1" parent="1">
          <mxGeometry x="290" y="140" width="80" height="80" as="geometry" />
        </mxCell>
        <mxCell id="fm8CX82B8omJAochI-VR-18" style="edgeStyle=orthogonalEdgeStyle;rounded=0;orthogonalLoop=1;jettySize=auto;html=1;exitX=0.5;exitY=1;exitDx=0;exitDy=0;entryX=0.5;entryY=0;entryDx=0;entryDy=0;" edge="1" parent="1" source="fm8CX82B8omJAochI-VR-14" target="fm8CX82B8omJAochI-VR-17">
          <mxGeometry relative="1" as="geometry" />
        </mxCell>
        <mxCell id="fm8CX82B8omJAochI-VR-19" value="Letter chosen" style="edgeLabel;html=1;align=center;verticalAlign=middle;resizable=0;points=[];" vertex="1" connectable="0" parent="fm8CX82B8omJAochI-VR-18">
          <mxGeometry x="0.0159" y="-1" relative="1" as="geometry">
            <mxPoint as="offset" />
          </mxGeometry>
        </mxCell>
        <mxCell id="fm8CX82B8omJAochI-VR-14" value="Choose letter&lt;div&gt;(random, can add voting later)&lt;/div&gt;" style="whiteSpace=wrap;html=1;aspect=fixed;" vertex="1" parent="1">
          <mxGeometry x="290" y="320" width="80" height="80" as="geometry" />
        </mxCell>
        <mxCell id="fm8CX82B8omJAochI-VR-33" style="edgeStyle=orthogonalEdgeStyle;rounded=0;orthogonalLoop=1;jettySize=auto;html=1;exitX=0.5;exitY=1;exitDx=0;exitDy=0;entryX=0.5;entryY=0;entryDx=0;entryDy=0;" edge="1" parent="1" source="fm8CX82B8omJAochI-VR-17" target="fm8CX82B8omJAochI-VR-23">
          <mxGeometry relative="1" as="geometry" />
        </mxCell>
        <mxCell id="fm8CX82B8omJAochI-VR-34" value="Round starts, inc by 1" style="edgeLabel;html=1;align=center;verticalAlign=middle;resizable=0;points=[];" vertex="1" connectable="0" parent="fm8CX82B8omJAochI-VR-33">
          <mxGeometry x="-0.4" y="-3" relative="1" as="geometry">
            <mxPoint as="offset" />
          </mxGeometry>
        </mxCell>
        <mxCell id="fm8CX82B8omJAochI-VR-17" value="Everyone submits words" style="whiteSpace=wrap;html=1;aspect=fixed;" vertex="1" parent="1">
          <mxGeometry x="290" y="480" width="80" height="80" as="geometry" />
        </mxCell>
        <mxCell id="fm8CX82B8omJAochI-VR-37" style="edgeStyle=orthogonalEdgeStyle;rounded=0;orthogonalLoop=1;jettySize=auto;html=1;exitX=0.5;exitY=1;exitDx=0;exitDy=0;entryX=0.5;entryY=0;entryDx=0;entryDy=0;" edge="1" parent="1" source="fm8CX82B8omJAochI-VR-23" target="fm8CX82B8omJAochI-VR-36">
          <mxGeometry relative="1" as="geometry" />
        </mxCell>
        <mxCell id="fm8CX82B8omJAochI-VR-42" value="Player who is going" style="edgeLabel;html=1;align=center;verticalAlign=middle;resizable=0;points=[];" vertex="1" connectable="0" parent="fm8CX82B8omJAochI-VR-37">
          <mxGeometry x="0.6111" y="-4" relative="1" as="geometry">
            <mxPoint as="offset" />
          </mxGeometry>
        </mxCell>
        <mxCell id="fm8CX82B8omJAochI-VR-40" style="edgeStyle=orthogonalEdgeStyle;rounded=0;orthogonalLoop=1;jettySize=auto;html=1;exitX=0.5;exitY=1;exitDx=0;exitDy=0;entryX=0.5;entryY=0;entryDx=0;entryDy=0;" edge="1" parent="1" source="fm8CX82B8omJAochI-VR-23" target="fm8CX82B8omJAochI-VR-39">
          <mxGeometry relative="1" as="geometry" />
        </mxCell>
        <mxCell id="fm8CX82B8omJAochI-VR-41" value="Team is ready" style="edgeLabel;html=1;align=center;verticalAlign=middle;resizable=0;points=[];" vertex="1" connectable="0" parent="fm8CX82B8omJAochI-VR-40">
          <mxGeometry x="-0.8095" y="-4" relative="1" as="geometry">
            <mxPoint as="offset" />
          </mxGeometry>
        </mxCell>
        <mxCell id="fm8CX82B8omJAochI-VR-43" value="Players who are waiting" style="edgeLabel;html=1;align=center;verticalAlign=middle;resizable=0;points=[];" vertex="1" connectable="0" parent="fm8CX82B8omJAochI-VR-40">
          <mxGeometry x="0.6" y="-1" relative="1" as="geometry">
            <mxPoint as="offset" />
          </mxGeometry>
        </mxCell>
        <mxCell id="fm8CX82B8omJAochI-VR-23" value="Team readies up" style="whiteSpace=wrap;html=1;aspect=fixed;" vertex="1" parent="1">
          <mxGeometry x="290" y="610" width="80" height="80" as="geometry" />
        </mxCell>
        <mxCell id="fm8CX82B8omJAochI-VR-44" style="edgeStyle=orthogonalEdgeStyle;rounded=0;orthogonalLoop=1;jettySize=auto;html=1;exitX=0.5;exitY=1;exitDx=0;exitDy=0;entryX=0.5;entryY=1;entryDx=0;entryDy=0;" edge="1" parent="1" source="fm8CX82B8omJAochI-VR-36" target="fm8CX82B8omJAochI-VR-39">
          <mxGeometry relative="1" as="geometry" />
        </mxCell>
        <mxCell id="fm8CX82B8omJAochI-VR-45" value="Player can hit &quot;got it&quot; indicating that word&lt;div&gt;was guessed, incrementing team score by 1&lt;/div&gt;&lt;div&gt;and passing to next player&lt;/div&gt;" style="edgeLabel;html=1;align=center;verticalAlign=middle;resizable=0;points=[];" vertex="1" connectable="0" parent="fm8CX82B8omJAochI-VR-44">
          <mxGeometry x="-0.1674" y="-3" relative="1" as="geometry">
            <mxPoint x="13" y="7" as="offset" />
          </mxGeometry>
        </mxCell>
        <mxCell id="fm8CX82B8omJAochI-VR-48" style="edgeStyle=orthogonalEdgeStyle;rounded=0;orthogonalLoop=1;jettySize=auto;html=1;exitX=0;exitY=0;exitDx=0;exitDy=0;entryX=0;entryY=0.5;entryDx=0;entryDy=0;" edge="1" parent="1" source="fm8CX82B8omJAochI-VR-36" target="fm8CX82B8omJAochI-VR-23">
          <mxGeometry relative="1" as="geometry" />
        </mxCell>
        <mxCell id="fm8CX82B8omJAochI-VR-49" value="Next team goes&lt;div&gt;If both teams went, round incs by 1&lt;/div&gt;" style="edgeLabel;html=1;align=center;verticalAlign=middle;resizable=0;points=[];" vertex="1" connectable="0" parent="fm8CX82B8omJAochI-VR-48">
          <mxGeometry x="-0.1136" y="3" relative="1" as="geometry">
            <mxPoint as="offset" />
          </mxGeometry>
        </mxCell>
        <mxCell id="fm8CX82B8omJAochI-VR-52" style="edgeStyle=orthogonalEdgeStyle;rounded=0;orthogonalLoop=1;jettySize=auto;html=1;exitX=0;exitY=0.5;exitDx=0;exitDy=0;entryX=0;entryY=0.5;entryDx=0;entryDy=0;" edge="1" parent="1" source="fm8CX82B8omJAochI-VR-36" target="fm8CX82B8omJAochI-VR-51">
          <mxGeometry relative="1" as="geometry" />
        </mxCell>
        <mxCell id="fm8CX82B8omJAochI-VR-53" value="Game is finished after 3 rounds" style="edgeLabel;html=1;align=center;verticalAlign=middle;resizable=0;points=[];" vertex="1" connectable="0" parent="fm8CX82B8omJAochI-VR-52">
          <mxGeometry x="0.1984" relative="1" as="geometry">
            <mxPoint as="offset" />
          </mxGeometry>
        </mxCell>
        <mxCell id="fm8CX82B8omJAochI-VR-36" value="Shown word with timer" style="whiteSpace=wrap;html=1;aspect=fixed;" vertex="1" parent="1">
          <mxGeometry x="190" y="770" width="80" height="80" as="geometry" />
        </mxCell>
        <mxCell id="fm8CX82B8omJAochI-VR-46" style="edgeStyle=orthogonalEdgeStyle;rounded=0;orthogonalLoop=1;jettySize=auto;html=1;exitX=1;exitY=1;exitDx=0;exitDy=0;entryX=0;entryY=1;entryDx=0;entryDy=0;" edge="1" parent="1" source="fm8CX82B8omJAochI-VR-39" target="fm8CX82B8omJAochI-VR-36">
          <mxGeometry relative="1" as="geometry">
            <Array as="points">
              <mxPoint x="465" y="920" />
              <mxPoint x="190" y="920" />
            </Array>
          </mxGeometry>
        </mxCell>
        <mxCell id="fm8CX82B8omJAochI-VR-47" value="Next player goes until time is up" style="edgeLabel;html=1;align=center;verticalAlign=middle;resizable=0;points=[];" vertex="1" connectable="0" parent="fm8CX82B8omJAochI-VR-46">
          <mxGeometry x="0.0506" y="-2" relative="1" as="geometry">
            <mxPoint as="offset" />
          </mxGeometry>
        </mxCell>
        <mxCell id="fm8CX82B8omJAochI-VR-39" value="Show timer" style="whiteSpace=wrap;html=1;aspect=fixed;" vertex="1" parent="1">
          <mxGeometry x="385" y="770" width="80" height="80" as="geometry" />
        </mxCell>
        <mxCell id="fm8CX82B8omJAochI-VR-51" value="End screen with score, stats, words, etc&lt;div&gt;(play again)&lt;/div&gt;" style="whiteSpace=wrap;html=1;aspect=fixed;" vertex="1" parent="1">
          <mxGeometry x="290" y="980" width="80" height="80" as="geometry" />
        </mxCell>
      </root>
    </mxGraphModel>
  </diagram>
</mxfile>
